<svg xmlns="http://www.w3.org/2000/svg" class="icon icon-tabler icon-tabler-armchair-2" width="250px" height="250px" viewBox="0 0 24 24" stroke-width="1.67" stroke="rgba(1, 1, 1, 1)" fill="none" stroke-linecap="round" stroke-linejoin="round"><defs><filter id="sharpness-filter1879" x="0" y="0" width="100%" height="100%"><feConvolveMatrix kernelMatrix="0 -1 0 -1 5 -1 0 -1 0"/></filter><filter id="smoothness-filter1880" x="0" y="0" width="100%" height="100%"><feConvolveMatrix kernelMatrix="-1 -1 -1 -1 -7 -1 -1 -1 -1"/></filter></defs><circle cx="50%" cy="50%" r="50%" stroke="none" stroke-width="0" fill="rgba(108, 212, 204, 1)"/><g transform="translate(2.40, 2.40) scale(0.8)" style="filter: url(&quot;#sharpness-filter1879&quot;) url(&quot;#smoothness-filter1880&quot;);"><path stroke="none" d="M0 0h24v24H0z" fill="none"/><path d="M5 10v-4a3 3 0 0 1 3 -3h8a3 3 0 0 1 3 3v4"/><path d="M16 15v-2a3 3 0 1 1 3 3v3h-14v-3a3 3 0 1 1 3 -3v2"/><path d="M8 12h8"/><path d="M7 19v2"/><path d="M17 19v2"/></g>
  
  
  
  
  
  
</svg>